<svg height="512pt" viewBox="0 -75 512 512" width="512pt" xmlns="http://www.w3.org/2000/svg"><path d="m501.609375 92.375h-476.230469l-25.378906 7.136719v243.511719c0 10.34375 8.386719 18.734374 18.730469 18.734374h342.492187c3.117188 0 5.78125-2.132812 6.582032-5.144531 3.269531-12.316406 14.488281-21.394531 27.835937-21.394531 13.164063 0 24.261719 8.835938 27.699219 20.898438.957031 3.363281 4.082031 5.640624 7.578125 5.640624h62.351562c10.34375 0 18.730469-8.386718 18.730469-18.734374v-27.429688c0-3.144531-1.9375-6.015625-4.90625-7.039062-15.390625-5.300782-26.445312-19.910157-26.445312-37.097657 0-17.097656 10.9375-31.640625 26.203124-37.011719 3.109376-1.09375 5.148438-4.085937 5.148438-7.382812v-127.546875zm0 0" fill="#febe30"/><path d="m20.605469 343.023438v-243.511719l25.375-7.136719h-20.601563l-25.378906 7.136719v243.511719c0 10.34375 8.386719 18.734374 18.730469 18.734374h20.605469c-10.34375 0-18.730469-8.386718-18.730469-18.734374zm0 0" fill="#fea832"/><path d="m443.945312 356.117188c-3.4375-12.0625-14.535156-20.898438-27.703124-20.898438-3.632813 0-7.101563.691406-10.300782 1.921875 8.398438 3.222656 14.910156 10.242187 17.398438 18.976563.957031 3.363281 4.082031 5.640624 7.578125 5.640624h20.605469c-3.496094 0-6.621094-2.277343-7.578126-5.640624zm0 0" fill="#fea832"/><path d="m374.765625 5.226562c-7.277344-4.996093-16.398437-6.503906-24.894531-4.117187l-349.871094 98.402344h512zm0 0" fill="#fed42d"/><path d="m414.746094 66.589844c15.230468 0 28.566406-3.6875 35.929687-9.207032l-41.941406-28.816406c-20.347656 1.328125-35.992187 9.289063-35.992187 18.914063 0 10.554687 18.804687 19.109375 42.003906 19.109375zm0 0" fill="#febe30"/><path d="m322.53125 54.613281c0-6.617187-11.785156-11.980469-26.328125-11.980469-14.539063 0-26.328125 5.363282-26.328125 11.980469 0 6.613281 11.789062 11.976563 26.328125 11.976563 14.542969 0 26.328125-5.363282 26.328125-11.976563zm0 0" fill="#febe30"/><g fill="#fea832"><path d="m129.417969 148.894531c0 9.511719-7.707031 17.21875-17.21875 17.21875-9.507813 0-17.214844-7.707031-17.214844-17.21875 0-9.507812 7.707031-17.214843 17.214844-17.214843 9.511719 0 17.21875 7.707031 17.21875 17.214843zm0 0"/><path d="m290.4375 295.53125c0 9.511719-7.710938 17.21875-17.21875 17.21875-9.511719 0-17.21875-7.707031-17.21875-17.21875 0-9.507812 7.707031-17.214844 17.21875-17.214844 9.507812 0 17.21875 7.707032 17.21875 17.214844zm0 0"/><path d="m235.929688 203.042969c0 15.910156-12.898438 28.808593-28.808594 28.808593s-28.808594-12.898437-28.808594-28.808593c0-15.910157 12.898438-28.808594 28.808594-28.808594s28.808594 12.898437 28.808594 28.808594zm0 0"/><path d="m389.261719 176.421875c0 21.664063-17.5625 39.226563-39.230469 39.226563-21.664062 0-39.226562-17.5625-39.226562-39.226563s17.5625-39.226563 39.226562-39.226563c21.667969 0 39.230469 17.5625 39.230469 39.226563zm0 0"/><path d="m111.609375 309.675781c-22.324219 0-40.417969 18.097657-40.417969 40.417969 0 4.054688.601563 7.96875 1.714844 11.660156h77.410156c1.109375-3.691406 1.714844-7.605468 1.714844-11.660156 0-22.320312-18.097656-40.417969-40.421875-40.417969zm0 0"/><path d="m392.832031 47.480469c0-6.847657 7.921875-12.851563 19.820313-16.222657l-3.917969-2.691406c-20.347656 1.328125-35.992187 9.289063-35.992187 18.914063 0 10.550781 18.804687 19.109375 42.003906 19.109375 3.457031 0 6.804687-.199219 10.019531-.558594-18.332031-2.050781-31.933594-9.578125-31.933594-18.550781zm0 0"/><path d="m289.964844 54.613281c0-5 6.726562-9.277343 16.285156-11.074219-3.097656-.582031-6.488281-.90625-10.046875-.90625-14.539063 0-26.328125 5.363282-26.328125 11.980469 0 6.613281 11.789062 11.976563 26.328125 11.976563 3.558594 0 6.949219-.324219 10.046875-.90625-9.558594-1.796875-16.285156-6.074219-16.285156-11.070313zm0 0"/></g><path d="m115.074219 148.894531c0-5.753906 2.832031-10.835937 7.171875-13.964843-2.828125-2.039063-6.292969-3.25-10.046875-3.25-9.507813 0-17.214844 7.707031-17.214844 17.214843 0 9.511719 7.707031 17.21875 17.214844 17.21875 3.753906 0 7.21875-1.214843 10.046875-3.253906-4.339844-3.125-7.171875-8.207031-7.171875-13.964844zm0 0" fill="#f78e2f"/><path d="m276.089844 295.53125c0-5.753906 2.835937-10.835938 7.171875-13.964844-2.828125-2.039062-6.289063-3.25-10.042969-3.25-9.507812 0-17.21875 7.707032-17.21875 17.214844 0 9.511719 7.710938 17.21875 17.21875 17.21875 3.753906 0 7.214844-1.214844 10.042969-3.25-4.335938-3.128906-7.171875-8.210938-7.171875-13.96875zm0 0" fill="#f78e2f"/><path d="m198.402344 203.042969c0-12.375 7.808594-22.925781 18.765625-27.003907-3.128907-1.164062-6.511719-1.804687-10.046875-1.804687-15.910156 0-28.808594 12.898437-28.808594 28.808594 0 15.910156 12.898438 28.808593 28.808594 28.808593 3.535156 0 6.917968-.636718 10.046875-1.800781-10.957031-4.078125-18.765625-14.628906-18.765625-27.007812zm0 0" fill="#f78e2f"/><path d="m330.894531 176.421875c0-18.191406 12.386719-33.488281 29.183594-37.925781-3.207031-.847656-6.574219-1.304688-10.046875-1.304688-21.664062 0-39.226562 17.566406-39.226562 39.230469s17.5625 39.226563 39.226562 39.226563c3.472656 0 6.839844-.457032 10.046875-1.304688-16.796875-4.4375-29.183594-19.730469-29.183594-37.921875zm0 0" fill="#f78e2f"/><path d="m121.65625 310.933594c-3.214844-.820313-6.578125-1.257813-10.046875-1.257813-22.324219 0-40.417969 18.097657-40.417969 40.421875 0 4.054688.601563 7.964844 1.714844 11.660156h20.089844c-1.113282-3.695312-1.714844-7.605468-1.714844-11.660156 0-18.859375 12.910156-34.695312 30.375-39.164062zm0 0" fill="#f78e2f"/></svg>