<?xml version="1.0"?>
<svg xmlns="http://www.w3.org/2000/svg" height="512px" viewBox="0 0 512 512" width="512px"><g><path d="m113.660156 149.832031c.164063.003907.332032-.003906.496094-.015625 45.140625-2.957031 56.160156-33.75 56.609375-35.058594 1.335937-3.917968-.753906-8.183593-4.675781-9.519531-3.921875-1.339843-8.183594.753907-9.519532 4.671875-.078124.226563-8.125 22.628906-43.394531 24.941406-4.132812.269532-7.265625 3.839844-6.992187 7.972657.25 3.824219 3.675781 6.988281 7.476562 7.007812zm0 0" data-original="#000000" class="active-path" data-old_color="#000000" fill="#BBBBBB"/><path d="m397.84375 149.816406c.164062.011719.332031.019532.496094.019532 3.917968 0 7.214844-3.046876 7.476562-7.011719.273438-4.132813-2.859375-7.703125-6.992187-7.976563-34.640625-2.269531-43.023438-23.9375-43.414063-24.996094-1.359375-3.882812-5.601562-5.945312-9.5-4.617187-3.921875 1.339844-6.011718 5.601563-4.675781 9.523437.449219 1.308594 11.46875 32.101563 56.609375 35.058594zm0 0" data-original="#000000" class="active-path" data-old_color="#000000" fill="#BBBBBB"/><path d="m237.402344 293.167969h37.195312c14.085938 0 23.332032-15.800781 16.109375-28.003907-7.230469-12.214843-20.527343-19.804687-34.707031-19.804687s-27.480469 7.589844-34.707031 19.804687c-7.234375 12.222657 2.054687 28.003907 16.109375 28.003907zm-3.203125-20.363281c4.542969-7.675782 12.898437-12.445313 21.800781-12.445313s17.257812 4.769531 21.800781 12.445313c1.414063 2.394531-.535156 5.363281-3.203125 5.363281h-37.195312c-2.679688 0-4.605469-2.992188-3.203125-5.363281zm0 0" data-original="#000000" class="active-path" data-old_color="#000000" fill="#BBBBBB"/><path d="m256 0c-83.707031 0-162.289062 41.074219-210.203125 109.878906-2.367187 3.398438-1.53125 8.070313 1.867187 10.4375 3.398438 2.367188 8.074219 1.53125 10.441407-1.867187 45.113281-64.777344 119.089843-103.449219 197.894531-103.449219 64.371094 0 124.890625 25.070312 170.410156 70.589844 45.519532 45.519531 70.589844 106.039062 70.589844 170.410156 0 25.078125-3.859375 49.839844-11.472656 73.597656-1.261719 3.941406.910156 8.167969 4.855468 9.429688 3.894532 1.246094 8.183594-.960938 9.433594-4.851563 8.082032-25.238281 12.183594-51.542969 12.183594-78.175781 0-68.378906-26.628906-132.664062-74.980469-181.019531-48.355469-48.351563-112.640625-74.980469-181.019531-74.980469zm0 0" data-original="#000000" class="active-path" data-old_color="#000000" fill="#BBBBBB"/><path d="m483.878906 355.527344c-3.742187-1.773438-8.21875-.179688-9.992187 3.566406-14.90625 31.449219-36.753907 59.609375-63.523438 81.984375-.078125-.359375-.140625-.722656-.210937-1.082031-1.402344-7.210938-.753906-14.695313 1.832031-21.570313 3.363281-8.929687 6.675781-16.941406 6.675781-26.714843 0-6.058594-1.035156-12.140626-3.015625-17.878907-.007812-.035156-.019531-.070312-.03125-.101562-.015625-.050781-.039062-.097657-.054687-.148438-4.40625-12.464843-8.492188-23.585937-3.574219-36.65625 3.320313-8.820312 6.832031-17.875 6.667969-27.453125-.164063-9.59375-4.132813-18.367187-7.144532-27.308594-2.921874-8.679687-2.746093-18.167968.476563-26.738281 4.929687-13.097656 8.5-25.613281 5.113281-39.59375h6.121094c4.140625 0 7.5-3.359375 7.5-7.5s-3.359375-7.5-7.5-7.5h-84c-4.144531 0-7.5 3.359375-7.5 7.5s3.355469 7.5 7.5 7.5h8.792969c1.75 5.078125 2.425781 10.398438 2.050781 15.667969-.515625 7.277344-4.042969 13.800781-6.3125 20.613281-3.910156 11.738281-3.726562 24.523438.515625 36.148438 4.441406 12.183593 8.167969 23.144531 3.339844 35.90625-5.726563 15.148437-9.078125 29.867187-3.339844 45.59375 4.410156 12.09375 8.125 23.253906 3.339844 35.90625-5.75 15.207031-9.105469 29.796875-3.339844 45.59375 3.210937 8.804687 6.765625 17.1875 5.589844 26.769531-29.707031 12.589844-61.261719 18.96875-93.855469 18.96875s-64.144531-6.378906-93.855469-18.96875c-.011719-.113281-.03125-.230469-.042969-.34375-.839843-7.367188.429688-14.933594 3.632813-21.621094 6.960937-14.523437 7.070313-32.4375-.003906-47.230468-4.269531-8.929688-5.050781-19.289063-2.140625-28.75 4.722656-15.351563 10.078125-27.746094 5.378906-44.195313-4.308594-15.082031-10.769531-27.097656-3.234375-42.824219 7.078125-14.769531 7.070313-32.464844 0-47.226562-4.546875-9.488282-5.125-20.199219-1.746094-30.003906h8.792969c4.140625 0 7.5-3.359376 7.5-7.5 0-4.144532-3.359375-7.5-7.5-7.5h-84c-4.140625 0-7.5 3.355468-7.5 7.5 0 4.140624 3.359375 7.5 7.5 7.5h6.121094c-1.019532 4.214843-1.5625 8.550781-1.5625 12.875 0 16.484374 11.550781 30.484374 8.691406 47.359374-.90625 5.34375-3.292969 9.851563-5.171875 14.855469-5.722656 15.222657-3.261719 30.285157 2.742187 44.914063 4.226563 10.300781 3.910157 22.203125-.894531 32.25-7.808593 16.320312-5.746093 33.066406.894531 49.25 3.078126 7.5 3.792969 15.824218 2.03125 23.738281-25.1875-21.066406-46.117187-47.347656-60.871093-76.550781-17.09375-33.832032-25.761719-70.34375-25.761719-108.527344 0-38.960938 9.527344-77.675781 27.550781-111.960938 1.925781-3.667968.515625-8.199218-3.148437-10.128906-3.667969-1.925781-8.203125-.515625-10.128906 3.152344-19.152344 36.425781-29.273438 77.554688-29.273438 118.9375 0 40.554688 9.210938 79.34375 27.371094 115.289062 17.316406 34.277344 42.636718 64.761719 73.230468 88.167969 16.007813 12.242188 33.4375 22.570313 51.804688 30.703125 32.699219 14.492188 67.550781 21.839844 103.59375 21.839844 36.039062 0 70.894531-7.347656 103.597656-21.84375 18.363282-8.128906 35.792969-18.457031 51.804688-30.703125 32.347656-24.75 58.640625-57.230469 76.039062-93.9375 1.773438-3.742187.179688-8.214844-3.5625-9.988281zm-369.414062 95.144531c4.773437-13.597656 3.988281-28.820313-2.234375-41.835937-5.121094-10.714844-5.125-23.5625.003906-34.269532 5.734375-11.96875 6.875-25.925781 3.234375-38.675781-4.082031-14.296875-10.183594-28.316406-3.234375-42.824219 5.671875-11.835937 6.875-25.921875 3.234375-38.675781-3.828125-13.402344-9.871094-24.386719-4.984375-38.558594h37.878906c-2.957031 12.136719-1.679687 24.960938 3.839844 36.484375 5.125 10.695313 5.117187 23.578125 0 34.273438-6.996094 14.632812-7.085937 32.460937 0 47.226562 6.703125 13.964844 2.402344 26.320313-2.316406 39.914063-4.628907 13.328125-3.878907 28.667969 2.316406 41.585937 5.113281 10.65625 5.101563 23.609375 0 34.273438-3.148437 6.585937-5.003906 14-5.316406 21.34375-11.335938-5.761719-22.226563-12.4375-32.539063-19.9375.039063-.105469.078125-.214844.117188-.324219zm250.644531 20.265625c-.253906-6.105469-1.554687-12.117188-3.789063-17.800781-2.636718-6.699219-5.410156-13.34375-5.410156-20.675781 0-7.300782 2.75-13.957032 5.386719-20.625 6.820313-17.246094 2.3125-31.519532-3.289063-48.167969-3.972656-11.808594-1.121093-22.1875 3.289063-33.332031 4.738281-11.972657 5.09375-25.691407.847656-38.003907-.011719-.03125-.019531-.066406-.03125-.101562-.015625-.046875-.039062-.097657-.054687-.144531-2.664063-7.542969-6.148438-14.234376-6.148438-22.625 0-11.785157 7.148438-21.765626 8.75-33.308594.9375-6.761719.601563-13.644532-1.027344-20.320313h37.882813c1.421875 4.132813 2.144531 8.445313 2.144531 12.878907 0 8.695312-3.746094 15.417968-6.410156 23.402343-3.90625 11.734375-3.722656 24.53125.515625 36.148438 4.429687 12.148437 8.148437 23.1875 3.339844 35.910156-6.90625 18.265625-7.449219 34.824219-.25 52.914063 7.558593 18.992187-6.445313 36.464843-6.445313 55.375 0 6.179687 1.121094 12.652343 3.238282 18.539062-10.308594 7.496094-21.199219 14.171875-32.539063 19.9375zm0 0" data-original="#000000" class="active-path" data-old_color="#000000" fill="#BBBBBB"/></g> </svg>
